{
	"asset":{
		"version":"2.0",
		"generator":"Houdini GLTF 2.0 Exporter"
	},
	"accessors":[
		{
			"bufferView":0,
			"componentType":5123,
			"count":240,
			"type":"SCALAR",
			"min":[0
			],
			"max":[41
			]
		},
		{
			"bufferView":1,
			"componentType":5126,
			"count":42,
			"type":"VEC3",
			"min":[-1,-0.9510566,-1
			],
			"max":[1,0.9510566,1
			]
		}
	],
	"buffers":[
		{
			"uri":"Rat_4_data.bin",
			"byteLength":984,
			"name":"main_buffer"
		}
	],
	"bufferViews":[
		{
			"buffer":0,
			"byteLength":480,
			"target":34963
		},
		{
			"buffer":0,
			"byteOffset":480,
			"byteLength":504,
			"target":34962
		}
	],
	"nodes":[
		{
			"name":"rat",
			"mesh":0
		}
	],
	"meshes":[
		{
			"primitives":[
				{
					"attributes":{
						"POSITION":1
					},
					"indices":0
				}
			]
		}
	],
	"scenes":[
		{
			"nodes":[0
			]
		}
	],
	"scene":0
}
