{
	"asset":{
		"version":"2.0",
		"generator":"Houdini GLTF 2.0 Exporter"
	},
	"accessors":[
		{
			"bufferView":0,
			"componentType":5121,
			"count":36,
			"type":"SCALAR",
			"min":[0
			],
			"max":[7
			]
		},
		{
			"bufferView":1,
			"componentType":5126,
			"count":8,
			"type":"VEC3",
			"min":[-0.5,0,-0.5
			],
			"max":[0.5,5,0.5
			]
		}
	],
	"buffers":[
		{
			"uri":"Tree_3_data.bin",
			"byteLength":132,
			"name":"main_buffer"
		}
	],
	"bufferViews":[
		{
			"buffer":0,
			"byteLength":36,
			"target":34963
		},
		{
			"buffer":0,
			"byteOffset":36,
			"byteLength":96,
			"target":34962
		}
	],
	"nodes":[
		{
			"name":"tree",
			"mesh":0
		}
	],
	"meshes":[
		{
			"primitives":[
				{
					"attributes":{
						"POSITION":1
					},
					"indices":0
				}
			]
		}
	],
	"scenes":[
		{
			"nodes":[0
			]
		}
	],
	"scene":0
}
